<?xml version="1.0" encoding="UTF-8"?>
<svg width="113px" height="23px" viewBox="0 0 113 23" version="1.1" xmlns="http://www.w3.org/2000/svg" xmlns:xlink="http://www.w3.org/1999/xlink">
    <title>letters</title>
    <g id="Page-1" stroke="none" stroke-width="1" fill="none" fill-rule="evenodd">
        <g id="logo-letters" fill="#7C807C">
            <path d="M4.67665607,-0.100330912 C5.9862629,-0.100330912 7.41897552,0.511523277 8.30138686,1.46651191 L6.66012933,3.41323718 C6.14611669,2.71548454 5.37440871,2.2621061 4.71386342,2.2621061 C3.68446009,2.2621061 2.93801635,3.08296453 2.93801635,4.22123381 C2.93801635,5.37236489 3.68446009,6.20470708 4.71386342,6.20470708 C5.32571761,6.20470708 6.09742559,5.82528398 6.66012933,5.22583225 L8.30138686,6.97641506 C7.4021417,7.95607349 6.05856363,8.61021331 4.80143948,8.68378112 L4.56687142,8.69070923 L4.56687142,8.69070923 C1.93341792,8.69070923 0.0239,6.81702062 0.0239,4.25798181 C0.0239,1.73615036 1.98256837,-0.100330912 4.67665607,-0.100330912 Z M19.7347919,-0.0144783989 L19.7347919,1.76090932 L15.7310974,6.38840114 L19.8206903,6.38840114 L19.8206903,8.56801685 L11.9478908,8.56801685 L11.9478908,6.79262913 L15.9515854,2.16467796 L12.0953422,2.16467796 L12.0953422,-0.0144783989 L19.7347919,-0.0144783989 Z M26.2102487,-0.0148918139 L27.936486,3.29105008 L29.6011704,-0.0148918139 L32.430307,-0.0148918139 L29.3567962,5.89877998 L29.3567962,8.56806279 L26.5157165,8.56806279 L26.5157165,5.96033288 L23.3815715,-0.0148918139 L26.2102487,-0.0148918139 Z M40.0817457,-0.137676067 C41.4414217,-0.137676067 42.8488701,0.267011276 43.8162612,0.878865466 L42.7882359,3.03367628 C41.9186863,2.55595229 40.5838153,2.0295372 39.8373715,2.0295372 C39.519042,2.0295372 39.3100377,2.12829744 39.3100377,2.38507409 C39.3100377,3.46224982 43.7551676,2.78884273 43.7551676,5.89910153 C43.7551676,7.74321751 42.1908914,8.59472677 40.3415556,8.65125878 L40.1423799,8.65428278 L40.1423799,8.65428278 C38.6490331,8.65428278 36.9843487,8.15175389 35.8451608,7.28220435 L36.8984503,5.15219844 C37.7799429,5.88669908 39.2980946,6.48661017 40.1676442,6.48661017 C40.5838153,6.48661017 40.8534537,6.35202062 40.8534537,6.04609353 C40.8534537,4.9312511 36.4083238,5.66621108 36.4083238,2.65379383 C36.4083238,0.940418365 37.8538983,-0.137676067 40.0817457,-0.137676067 Z M55.1032714,-0.0147540089 L55.1032714,2.22595525 L52.6544766,2.22595525 L52.6544766,8.56820059 L49.8133969,8.56820059 L49.8133969,2.22595525 L47.3765451,2.22595525 L47.3765451,-0.0147540089 L55.1032714,-0.0147540089 Z M66.4759963,-0.0145243339 L66.4759963,2.13982713 L62.0556713,2.13982713 L62.0556713,3.19311666 L66.0713089,3.19311666 L66.0713089,5.34746812 L62.0556713,5.34746812 L62.0556713,6.4131601 L66.5853216,6.4131601 L66.5853216,8.56797092 L59.2145916,8.56797092 L59.2145916,-0.0145243339 L66.4759963,-0.0145243339 Z M4.27332521,14 C6.63678441,14 8,15.1680492 8,17.2228526 C8,19.3344308 6.72331526,20.5808077 4.49891238,20.6590219 L4.27332521,20.6629382 L4.27332521,20.6629382 L3.01339829,20.6629382 L3.01339829,23 L0,23 L0,14 L4.27332521,14 Z M4.03615561,17 L3,17 L3,19 L4.03615561,19 C4.64713959,19 5,18.6284816 5,17.9820305 C5,17.359389 4.64713959,17 4.03615561,17 Z M17.0780774,14 C19.3639851,14 20.6755049,15.1680492 20.6755049,17.2228526 C20.6755049,18.532031 20.2056866,19.5083757 19.3396141,20.0728927 L21,23 L17.8480199,23 L16.8379781,20.6629382 L15.7913799,20.6629382 L15.7913799,23 L13,23 L13,14 L17.0780774,14 Z M16.7257869,17 L15,17 L15,19 L16.7257869,19 C17.533293,19 18,18.6284816 18,17.9820305 C18,17.359389 17.533293,17 16.7257869,17 Z M30.1715909,14 L34,23 L30.6820118,23 L30.2124044,21.7288054 L26.6797673,21.7288054 L26.1970592,23 L23,23 L26.9755394,14 L30.1715909,14 Z M29.0138746,18 L28,21 L30,21 L29.0138746,18 Z M45.1667042,22.2462194 C44.2807821,22.8374028 42.8546176,23.2808513 41.6756304,23.3411849 L41.4083026,23.3482 L41.4083026,23.3482 C38.7142149,23.3482 36.7555465,21.4873732 36.7555465,18.9402775 C36.7555465,16.4055842 38.7881702,14.5571599 41.5920426,14.5571599 C42.9269136,14.5571599 44.3830531,15.0711725 45.3012938,15.8791691 L43.6986216,17.8258944 C43.1221374,17.2751338 42.2897952,16.9195969 41.5800995,16.9195969 C40.4781188,16.9195969 39.6696629,17.7772033 39.6696629,18.9402775 C39.6696629,20.1281566 40.4900619,20.9848443 41.6039857,20.9848443 C41.898429,20.9848443 42.3150595,20.8750596 42.7312305,20.7037221 L42.7312305,18.707387 L45.1667042,18.707387 L45.1667042,22.2462194 Z M52.0345378,14.642599 L55.4254594,19.0505215 L55.4254594,14.642599 L57.9969007,14.642599 L57.9969007,23.2255536 L55.6220612,23.2255536 L52.242164,18.8424359 L52.242164,23.2255536 L49.6587796,23.2255536 L49.6587796,14.642599 L52.0345378,14.642599 Z M65.5006125,14.6427827 L65.5006125,23.2257373 L62.6595328,23.2257373 L62.6595328,14.6427827 L65.5006125,14.6427827 Z M77.4254761,14.6429664 L77.4254761,16.7973179 L73.0051511,16.7973179 L73.0051511,17.8506074 L77.0207888,17.8506074 L77.0207888,20.0049589 L73.0051511,20.0049589 L73.0051511,21.0706509 L77.5348014,21.0706509 L77.5348014,23.2254617 L70.1640714,23.2254617 L70.1640714,14.6429664 L77.4254761,14.6429664 Z M84.4267968,14.642599 L87.8177184,19.0505215 L87.8177184,14.642599 L90.3891597,14.642599 L90.3891597,23.2255536 L88.0143202,23.2255536 L84.634423,18.8424359 L84.634423,23.2255536 L82.0510386,23.2255536 L82.0510386,14.642599 L84.4267968,14.642599 Z M97.8925959,14.6427827 L97.8925959,23.2257373 L95.0515162,23.2257373 L95.0515162,14.6427827 L97.8925959,14.6427827 Z M109.171591,14 L113,23 L109.682012,23 L109.212404,21.7288054 L105.679767,21.7288054 L105.197059,23 L102,23 L105.975539,14 L109.171591,14 Z M107.013875,18 L106,21 L108,21 L107.013875,18 Z" id="letters"></path>
        </g>
    </g>
</svg>