<?xml version="1.0" encoding="UTF-8"?>
<svg width="213px" height="149px" viewBox="0 0 213 149" version="1.1" xmlns="http://www.w3.org/2000/svg" xmlns:xlink="http://www.w3.org/1999/xlink">
    <title>Group</title>
    <g id="Page-1" stroke="none" stroke-width="1" fill="none" fill-rule="evenodd">
        <g id="Group">
            <path d="M28.9984819,112 C12.9830965,112 0,98.9122987 0,82.7678774 L0,33.609228 C0,15.0476198 14.9268948,0 33.3401474,0 L70.3916378,0 C79.5641065,0 87,7.49580452 87,16.7421757 L87,27.1592643 C87,31.9922608 83.1133144,35.4511566 78.3194015,35.4511566 L48.1654801,35.4511566 C41.2670003,35.4511566 35.6227896,41.5994884 35.6227896,48.5535492 L35.6227896,64.3986342 C35.6227896,71.4068694 41.2588025,77.0878325 48.2101128,77.0878325 L77.840739,77.0878325 C82.8313999,77.0878325 86.8774879,81.1660607 86.8774879,86.1973905 L86.8774879,99.5954467 C86.8774879,106.446209 81.368086,112 74.5720792,112 L28.9984819,112 Z" id="Fill-91" fill="#4CB8A5"></path>
            <path d="M126.305333,149 L126,125.637479 L126.023207,87.302823 C126.066891,81.504898 130.849841,76.9440045 136.593386,76.9440045 L165.594144,76.9440045 C172.118541,76.9440045 177.407953,71.6049709 177.407953,65.0183407 L177.407953,48.363661 C177.407953,41.2428059 171.688981,35.4701452 164.634915,35.4701452 L133.970067,35.4701452 C129.609851,35.4701452 126.075082,31.9019087 126.075082,27.5004099 L126.075082,16.9633634 C126.075082,7.59490508 133.598297,0 142.878886,0 L175.499051,0 C196.210303,0 213,16.9486641 213,37.8555536 L213,79.3179291 C213,97.4007302 198.478234,112.05999 180.565037,112.05999 L165.240576,112.05999 C165.089047,132.603533 146.656192,149.137404 126.305333,149" id="Fill-92" fill="#4CB8A5"></path>
            <path d="M117.064575,53.9284722 C115.513793,53.8140461 114.348307,52.4474196 114.461199,50.8755675 C114.574092,49.3041786 115.922399,48.1223941 117.473181,48.2368202 C119.023963,48.3512462 120.188992,49.7178727 120.076556,51.2897248 C119.963664,52.8615769 118.615357,54.0428982 117.064575,53.9284722 M117.064575,67.0249236 C115.513793,66.9100343 114.348307,65.5434078 114.461199,63.9720189 C114.574092,62.4001668 115.922399,61.2188455 117.473181,61.3332716 C119.023963,61.4472343 120.188992,62.8143241 120.076556,64.385713 C119.963664,65.9575651 118.615357,67.1388863 117.064575,67.0249236 M105.57197,53.9284722 C104.021188,53.8140461 102.856159,52.4474196 102.968594,50.8755675 C103.081486,49.3041786 104.429793,48.1223941 105.980575,48.2368202 C107.531357,48.3512462 108.696843,49.7178727 108.583951,51.2897248 C108.471059,52.8615769 107.122751,54.0428982 105.57197,53.9284722 M105.57197,67.0249236 C104.021188,66.9100343 102.856159,65.5434078 102.968594,63.9720189 C103.081486,62.4001668 104.429793,61.2188455 105.980575,61.3332716 C107.531357,61.4472343 108.696843,62.8143241 108.583951,64.385713 C108.471059,65.9575651 107.122751,67.1388863 105.57197,67.0249236 M96.0556626,53.6968405 C94.6310274,54.3282683 92.9714668,53.6699713 92.3480461,52.2264431 C91.7250824,50.7824516 92.3745552,49.1003428 93.7991904,48.4684518 C95.2233685,47.837024 96.8829291,48.495321 97.5063498,49.9388493 C98.1293134,51.3828407 97.4798407,53.0649495 96.0556626,53.6968405 M96.0556626,66.7928287 C94.6310274,67.4247197 92.9714668,66.7659594 92.3480461,65.3224312 C91.7250824,63.878903 92.3745552,62.196331 93.7991904,61.5649032 C95.2233685,60.9334754 96.8829291,61.5917724 97.5063498,63.0353007 C98.1293134,64.4788289 97.4798407,66.1614009 96.0556626,66.7928287 M117.494205,40 L93.5062192,40 C88.8081682,40 85,43.8603725 85,48.6217919 L85,64.3741314 C85,70.2427499 89.6934805,75 95.4834318,75 L115.584179,75 C121.888773,75 127,69.8197906 127,63.4290744 L127,49.6344853 C127,44.3134439 122.744377,40 117.494205,40" id="Fill-93" fill="#E15882"></path>
        </g>
    </g>
</svg>