<?xml version="1.0" encoding="UTF-8"?>
<svg width="102px" height="71px" viewBox="0 0 102 71" version="1.1" xmlns="http://www.w3.org/2000/svg" xmlns:xlink="http://www.w3.org/1999/xlink">
    <title>logo-white</title>
    <g id="Page-2" stroke="none" stroke-width="1" fill="none" fill-rule="evenodd">
        <g id="CZYSTE-PRAGNIENIA-LOGO-PDFy-(1)" transform="translate(-333.000000, -93.000000)" fill="#FFFFFF">
            <g id="Group" transform="translate(305.423200, 66.145800)">
                <path d="M111.2879,27 C121.2039,27 129.2429,35.039 129.2429,44.955 L129.2429,64.62 C129.2429,73.197 122.2899,80.15 113.7129,80.15 L106.3759,80.15 C106.3029,89.894 97.4779,97.736 87.7339,97.6704136 L87.5879,86.59 L87.5989,68.408 C87.6199,65.658 89.9099,63.494 92.6599,63.494 L106.5459,63.494 C109.6699,63.494 112.2019,60.962 112.2019,57.838 L112.2019,49.939 C112.2019,46.561 109.4629,43.823 106.0869,43.823 L91.4039,43.823 C89.3159,43.823 87.6239,42.131 87.6239,40.043 L87.6239,35.045 C87.6239,30.602 91.2259,27 95.6699,27 L111.2879,27 Z M47.9178,93.5008 C48.5518,93.5008 49.2418,93.7448 49.6768,94.1278 L48.9168,95.0518 C48.6438,94.7898 48.2488,94.6218 47.9128,94.6218 C47.3888,94.6218 47.0068,95.0288 47.0068,95.5798 C47.0068,96.1438 47.3948,96.5498 47.9238,96.5498 C48.0628,96.5498 48.2598,96.4978 48.4588,96.4168 L48.4588,95.4698 L49.6138,95.4698 L49.6138,97.1478 C49.2111333,97.4162444 48.5745901,97.6206889 48.0300524,97.6628069 L47.8308,97.6708 C46.5528,97.6708 45.6238,96.7878 45.6238,95.5798 C45.6238,94.3778 46.5888,93.5008 47.9178,93.5008 Z M74.6218,93.5412 L74.6218,97.6122 L73.2738,97.6122 L73.2738,93.5412 L74.6218,93.5412 Z M68.2351,93.5414 L69.8431,95.6324 L69.8431,93.5414 L71.0621,93.5414 L71.0621,97.6124 L69.9361,97.6124 L68.3321,95.5334 L68.3321,97.6124 L67.1081,97.6124 L67.1081,93.5414 L68.2351,93.5414 Z M64.9139,93.5416 L64.9139,94.5636 L62.8169,94.5636 L62.8169,95.0636 L64.7219,95.0636 L64.7219,96.0846 L62.8169,96.0846 L62.8169,96.5906 L64.9649,96.5906 L64.9649,97.6126 L61.4689,97.6126 L61.4689,93.5416 L64.9139,93.5416 Z M59.2578,93.5412 L59.2578,97.6122 L57.9108,97.6122 L57.9108,93.5412 L59.2578,93.5412 Z M52.8708,93.5414 L54.4788,95.6324 L54.4788,93.5414 L55.6988,93.5414 L55.6988,97.6124 L54.5728,97.6124 L52.9688,95.5334 L52.9688,97.6124 L51.7438,97.6124 L51.7438,93.5414 L52.8708,93.5414 Z M35.7993,93.5418 C36.9033,93.5418 37.5363,94.0698 37.5363,94.9988 C37.5363,95.5918 37.3103,96.0338 36.8913,96.2888 L37.6933,97.6128 L36.1713,97.6128 L35.6843,96.5558 L35.1783,96.5558 L35.1783,97.6128 L33.8313,97.6128 L33.8313,93.5418 L35.7993,93.5418 Z M30.126,93.5418 C31.183,93.5418 31.793,94.0698 31.793,94.9988 C31.793,95.9319111 31.2488951,96.4912846 30.2979998,96.5505572 L30.126,96.5558 L29.563,96.5558 L29.563,97.6128 L28.216,97.6128 L28.216,93.5418 L30.126,93.5418 Z M79.585,93.5419 L81.241,97.6119 L79.806,97.6119 L79.603,97.0379 L78.076,97.0379 L77.867,97.6119 L76.484,97.6119 L78.204,93.5419 L79.585,93.5419 Z M42.4249,93.5419 L44.0809,97.6119 L42.6449,97.6119 L42.4429,97.0379 L40.9149,97.0379 L40.7069,97.6119 L39.3239,97.6119 L41.0429,93.5419 L42.4249,93.5419 Z M78.854,94.8829 L78.424,96.0739 L79.272,96.0739 L78.854,94.8829 Z M41.6939,94.8829 L41.2629,96.0739 L42.1119,96.0739 L41.6939,94.8829 Z M30.057,94.5638 L29.563,94.5638 L29.563,95.5338 L30.057,95.5338 C30.347,95.5338 30.515,95.3538 30.515,95.0398 C30.515,94.7378 30.347,94.5638 30.057,94.5638 Z M35.7993,94.5638 L35.1783,94.5638 L35.1783,95.5338 L35.7993,95.5338 C36.0903,95.5338 36.2583,95.3538 36.2583,95.0398 C36.2583,94.7378 36.0903,94.5638 35.7993,94.5638 Z M30.4084,86.5486 C31.0294,86.5486 31.7094,86.8396 32.1284,87.2926 L31.3504,88.2156 C31.1064,87.8846 30.7394,87.6696 30.4264,87.6696 C29.9384,87.6696 29.5844,88.0586 29.5844,88.5986 C29.5844,89.1446 29.9384,89.5396 30.4264,89.5396 C30.7164,89.5396 31.0824,89.3596 31.3504,89.0756 L32.1284,89.9056 C31.7165818,90.3537818 31.107243,90.6589884 30.5295345,90.7107766 L30.3574,90.7186 C29.1074,90.7186 28.2024,89.8306 28.2024,88.6166 C28.2024,87.4196 29.1314,86.5486 30.4084,86.5486 Z M47.2022,86.5313 C47.8462,86.5313 48.5142,86.7233 48.9732,87.0133 L48.4852,88.0353 C48.0732,87.8093 47.4402,87.5593 47.0852,87.5593 C46.9342,87.5593 46.8352,87.6063 46.8352,87.7283 C46.8352,88.2393 48.9442,87.9193 48.9442,89.3943 C48.9442,90.2499667 48.2341877,90.6551858 47.3819548,90.6975692 L47.2302,90.7013 C46.5222,90.7013 45.7332,90.4633 45.1922,90.0513 L45.6922,89.0403 C46.1102,89.3883 46.8292,89.6733 47.2432,89.6733 C47.4402,89.6733 47.5682,89.6093 47.5682,89.4643 C47.5682,88.9353 45.4592,89.2843 45.4592,87.8553 C45.4592,87.0423 46.1452,86.5313 47.2022,86.5313 Z M54.3266,86.5904 L54.3266,87.6524 L53.1646,87.6524 L53.1646,90.6604 L51.8166,90.6604 L51.8166,87.6524 L50.6616,87.6524 L50.6616,86.5904 L54.3266,86.5904 Z M40.6228,86.5897 L41.4408,88.1577 L42.2308,86.5897 L43.5728,86.5897 L42.1148,89.3947 L42.1148,90.6607 L40.7668,90.6607 L40.7668,89.4237 L39.2808,86.5897 L40.6228,86.5897 Z M37.5509,86.5896 L37.5509,87.4316 L35.6519,89.6266 L37.5919,89.6266 L37.5919,90.6606 L33.8579,90.6606 L33.8579,89.8186 L35.7559,87.6236 L33.9269,87.6236 L33.9269,86.5896 L37.5509,86.5896 Z M59.7206,86.5899 L59.7206,87.6119 L57.6236,87.6119 L57.6236,88.1119 L59.5286,88.1119 L59.5286,89.1329 L57.6236,89.1329 L57.6236,89.6379 L59.7716,89.6379 L59.7716,90.6609 L56.2756,90.6609 L56.2756,86.5899 L59.7206,86.5899 Z M61.9009,27 C66.2889,27 69.8449,30.557 69.8449,34.945 L69.8449,39.888 C69.8449,42.182 67.9859,43.823 65.6929,43.823 L51.2679,43.823 C47.9679,43.823 45.2679,46.741 45.2679,50.041 L45.2679,57.561 C45.2679,60.886 47.9629,63.582 51.2899,63.582 L65.4629,63.582 C67.8509,63.582 69.7869,65.518 69.7869,67.905 L69.7869,74.263 C69.7869,77.514 67.1519,80.15 63.8999,80.15 L42.0989,80.15 C34.4369,80.15 28.2269,73.939 28.2269,66.278 L28.2269,42.949 C28.2269,34.141 35.3679,27 44.1759,27 L61.9009,27 Z M84.2143,45.8754 C86.6448143,45.8754 88.6280273,47.7891698 88.7393697,50.1921399 L88.7443,50.4054 L88.7443,56.8934 C88.7443,59.8260829 86.4266319,62.2162316 83.5222051,62.3310797 L83.3033,62.3354 L73.611,62.3354 C70.9226579,62.3354 68.7310997,60.2136396 68.6176163,57.5551021 L68.613,57.3384 L68.613,49.9294 C68.613,47.7582485 70.3196667,45.9857893 72.4655731,45.8803613 L72.668,45.8754 L84.2143,45.8754 Z M73.3961163,55.9046493 L73.3081477,55.9117882 C73.1768977,55.9263648 73.0456125,55.9607125 72.9183,56.0164 C72.2393,56.3134 71.9303,57.1054 72.2273,57.7834 C72.4403404,58.2711692 72.9075588,58.5680477 73.4052947,58.5873024 C73.5658151,58.5798 73.7274094,58.543557 73.883,58.4754 C74.562,58.1784 74.872,57.3874 74.575,56.7084 C74.3618855,56.2211786 73.8944161,55.9239511 73.3961163,55.9046493 Z M78.5686265,55.9048635 L78.4692654,55.9132494 C77.8431581,55.9875349 77.3369471,56.4963412 77.2893,57.1484 C77.2363,57.8874 77.7913,58.5304 78.5303,58.5844 L78.5763764,58.586983 L78.5763764,58.586983 C79.2477143,58.5580378 79.8048571,58.0296143 79.855,57.3434 C79.909,56.6044 79.353,55.9614 78.615,55.9074 C78.5994989,55.9062883 78.5840395,55.9054441 78.5686265,55.9048635 Z M84.0466343,55.9049017 L83.9473037,55.9132494 C83.3213796,55.9875349 82.8159471,56.4963412 82.7683,57.1484 C82.7143,57.8874 83.2703,58.5304 84.0093,58.5844 L84.0553165,58.586983 L84.0553165,58.586983 C84.7262893,58.5576235 85.2838768,58.0293453 85.334,57.3434 C85.387,56.6044 84.832,55.9614 84.092,55.9074 C84.0768358,55.9063124 84.0617125,55.9054809 84.0466343,55.9049017 Z M73.3961163,49.7456493 L73.3081477,49.7527882 C73.1768977,49.7673648 73.0456125,49.8017125 72.9183,49.8574 C72.2393,50.1544 71.9303,50.9464 72.2273,51.6244 C72.4403404,52.1114519 72.9075588,52.4086422 73.4052947,52.4281305 C73.5658151,52.4207473 73.7274094,52.384557 73.883,52.3164 C74.562,52.0194 74.872,51.2284 74.575,50.5494 C74.3618855,50.0621786 73.8944161,49.7649511 73.3961163,49.7456493 Z M78.5686265,49.7458635 L78.4692654,49.7542494 C77.8431581,49.8285349 77.3369471,50.3373412 77.2893,50.9894 C77.2363,51.7284 77.7913,52.3714 78.5303,52.4254 L78.5763764,52.427983 L78.5763764,52.427983 C79.2477143,52.3990378 79.8048571,51.8706143 79.855,51.1844 C79.909,50.4454 79.353,49.8024 78.615,49.7484 C78.5994989,49.7472883 78.5840395,49.7464441 78.5686265,49.7458635 Z M84.0466343,49.7459017 L83.9473037,49.7542494 C83.3213796,49.8285349 82.8159471,50.3373412 82.7683,50.9894 C82.7143,51.7284 83.2703,52.3714 84.0093,52.4254 L84.0553165,52.427983 L84.0553165,52.427983 C84.7262893,52.3986235 85.2838768,51.8703453 85.334,51.1844 C85.387,50.4454 84.832,49.8024 84.092,49.7484 C84.0768358,49.7473124 84.0617125,49.7464809 84.0466343,49.7459017 Z" id="logo-white"></path>
            </g>
        </g>
    </g>
</svg>