<?xml version="1.0" encoding="UTF-8"?>
<svg width="213px" height="149px" viewBox="0 0 213 149" version="1.1" xmlns="http://www.w3.org/2000/svg" xmlns:xlink="http://www.w3.org/1999/xlink">
    <title>logo-icon-white</title>
    <g id="Page-1" stroke="none" stroke-width="1" fill="none" fill-rule="evenodd">
        <g id="logo-icon-white" fill="#FFFFFF">
            <path d="M175.499051,0 C196.210303,0 213,16.9486641 213,37.8555536 L213,79.3179291 C213,97.4007302 198.478234,112.05999 180.565037,112.05999 L165.240576,112.05999 C165.089047,132.603533 146.656192,149.137404 126.305333,149 L126,125.637479 L126.023207,87.302823 C126.066891,81.504898 130.849841,76.9440045 136.593386,76.9440045 L165.594144,76.9440045 C172.118541,76.9440045 177.407953,71.6049709 177.407953,65.0183407 L177.407953,48.363661 C177.407953,41.2428059 171.688981,35.4701452 164.634915,35.4701452 L133.970067,35.4701452 C129.609851,35.4701452 126.075082,31.9019087 126.075082,27.5004099 L126.075082,16.9633634 C126.075082,7.59490508 133.598297,0 142.878886,0 L175.499051,0 Z M70.3916378,0 C79.5641065,0 87,7.49580452 87,16.7421757 L87,27.1592643 C87,31.9922608 83.1133144,35.4511566 78.3194015,35.4511566 L48.1654801,35.4511566 C41.2670003,35.4511566 35.6227896,41.5994884 35.6227896,48.5535492 L35.6227896,64.3986342 C35.6227896,71.4068694 41.2588025,77.0878325 48.2101128,77.0878325 L77.840739,77.0878325 C82.8313999,77.0878325 86.8774879,81.1660607 86.8774879,86.1973905 L86.8774879,99.5954467 C86.8774879,106.446209 81.368086,112 74.5720792,112 L28.9984819,112 C12.9830965,112 0,98.9122987 0,82.7678774 L0,33.609228 C0,15.0476198 14.9268948,0 33.3401474,0 L70.3916378,0 Z M117.494205,40 C122.653856,40 126.852959,44.1659867 126.996222,49.3601745 L127,49.6344853 L127,63.4290744 C127,69.7214719 122.044832,74.8403224 115.874299,74.9963362 L115.584179,75 L95.4834318,75 C89.7883977,75 85.1541793,70.3974469 85.0037682,64.6618399 L85,64.3741314 L85,48.6217919 C85,43.9469437 88.6709483,40.140675 93.2508619,40.0038107 L93.5062192,40 L117.494205,40 Z M114.461199,63.9720189 C114.348307,65.5434078 115.513793,66.9100343 117.064575,67.0249236 C118.615357,67.1388863 119.963664,65.9575651 120.076556,64.385713 C120.188992,62.8143241 119.023963,61.4472343 117.473181,61.3332716 C115.922399,61.2188455 114.574092,62.4001668 114.461199,63.9720189 Z M102.968594,63.9720189 C102.856159,65.5434078 104.021188,66.9100343 105.57197,67.0249236 C107.122751,67.1388863 108.471059,65.9575651 108.583951,64.385713 C108.696843,62.8143241 107.531357,61.4472343 105.980575,61.3332716 C104.429793,61.2188455 103.081486,62.4001668 102.968594,63.9720189 Z M93.7991904,61.5649032 C92.3745552,62.196331 91.7250824,63.878903 92.3480461,65.3224312 C92.9714668,66.7659594 94.6310274,67.4247197 96.0556626,66.7928287 C97.4798407,66.1614009 98.1293134,64.4788289 97.5063498,63.0353007 C96.8829291,61.5917724 95.2233685,60.9334754 93.7991904,61.5649032 Z M93.7991904,48.4684518 C92.3745552,49.1003428 91.7250824,50.7824516 92.3480461,52.2264431 C92.9714668,53.6699713 94.6310274,54.3282683 96.0556626,53.6968405 C97.4798407,53.0649495 98.1293134,51.3828407 97.5063498,49.9388493 C96.8829291,48.495321 95.2233685,47.837024 93.7991904,48.4684518 Z M114.461199,50.8755675 C114.348307,52.4474196 115.513793,53.8140461 117.064575,53.9284722 C118.615357,54.0428982 119.963664,52.8615769 120.076556,51.2897248 C120.188992,49.7178727 119.023963,48.3512462 117.473181,48.2368202 C115.922399,48.1223941 114.574092,49.3041786 114.461199,50.8755675 Z M102.968594,50.8755675 C102.856159,52.4474196 104.021188,53.8140461 105.57197,53.9284722 C107.122751,54.0428982 108.471059,52.8615769 108.583951,51.2897248 C108.696843,49.7178727 107.531357,48.3512462 105.980575,48.2368202 C104.429793,48.1223941 103.081486,49.3041786 102.968594,50.8755675 Z"></path>
        </g>
    </g>
</svg>