<?xml version="1.0" encoding="UTF-8"?>
<svg width="213px" height="149px" viewBox="0 0 213 149" version="1.1" xmlns="http://www.w3.org/2000/svg" xmlns:xlink="http://www.w3.org/1999/xlink">
    <title>Combined Shape</title>
    <g id="Page-1" stroke="none" stroke-width="1" fill="none" fill-rule="evenodd">
        <g id="logo" fill="#FFFFFF" transform="translate(0.000000, 0.348200)">
            <path d="M41.5920426,140.20896 C42.9269136,140.20896 44.3830531,140.722972 45.3012938,141.530969 L43.6986216,143.477694 C43.1221374,142.926934 42.2897952,142.571397 41.5800995,142.571397 C40.4781188,142.571397 39.6696629,143.429003 39.6696629,144.592077 C39.6696629,145.779957 40.4900619,146.636644 41.6039857,146.636644 C41.898429,146.636644 42.3150595,146.52686 42.7312305,146.355522 L42.7312305,144.359187 L45.1667042,144.359187 L45.1667042,147.898019 C44.2807821,148.489203 42.8546176,148.932651 41.6756304,148.992985 L41.4083026,149 C38.7142149,149 36.7555465,147.139173 36.7555465,144.592077 C36.7555465,142.057384 38.7881702,140.20896 41.5920426,140.20896 Z M175.198443,0 C196.105758,0 213.054395,16.9486367 213.054395,37.8554922 L213.054395,79.3178005 C213.054395,97.4005723 198.395159,112.059809 180.312387,112.059809 L164.842857,112.059809 C164.689894,132.603318 146.082544,149.137162 125.539035,148.999758 L125.230811,125.637276 L125.254238,87.3026814 C125.298335,81.5047658 130.126563,76.9438798 135.924478,76.9438798 L165.199772,76.9438798 C171.785932,76.9438798 177.125417,71.6048548 177.125417,65.0182353 L177.125417,48.3635826 C177.125417,41.242739 171.352306,35.4700877 164.231462,35.4700877 L133.276326,35.4700877 C128.874834,35.4700877 125.306603,31.9018569 125.306603,27.5003653 L125.306603,16.9633359 C125.306603,7.59489277 132.901037,0 142.26948,0 L175.198443,0 Z M52.0345378,140.294399 L55.4254594,144.702321 L55.4254594,140.294399 L57.9969007,140.294399 L57.9969007,148.877354 L55.6220612,148.877354 L52.242164,144.494236 L52.242164,148.877354 L49.6587796,148.877354 L49.6587796,140.294399 L52.0345378,140.294399 Z M65.5006125,140.294583 L65.5006125,148.877537 L62.6595328,148.877537 L62.6595328,140.294583 L65.5006125,140.294583 Z M77.4254761,140.294766 L77.4254761,142.449118 L73.0051511,142.449118 L73.0051511,143.502407 L77.0207888,143.502407 L77.0207888,145.656759 L73.0051511,145.656759 L73.0051511,146.722451 L77.5348014,146.722451 L77.5348014,148.877262 L70.1640714,148.877262 L70.1640714,140.294766 L77.4254761,140.294766 Z M84.4267968,140.294399 L87.8177184,144.702321 L87.8177184,140.294399 L90.3891597,140.294399 L90.3891597,148.877354 L88.0143202,148.877354 L84.634423,144.494236 L84.634423,148.877354 L82.0510386,148.877354 L82.0510386,140.294399 L84.4267968,140.294399 Z M97.8925959,140.294583 L97.8925959,148.877537 L95.0515162,148.877537 L95.0515162,140.294583 L97.8925959,140.294583 Z M30.1715909,139.6518 L34,148.6518 L30.6820118,148.6518 L30.2124044,147.380605 L26.6797673,147.380605 L26.1970592,148.6518 L23,148.6518 L26.9755394,139.6518 L30.1715909,139.6518 Z M17.0780774,139.6518 C19.3639851,139.6518 20.6755049,140.819849 20.6755049,142.874653 C20.6755049,144.183831 20.2056866,145.160176 19.3396141,145.724693 L21,148.6518 L17.8480199,148.6518 L16.8379781,146.314738 L15.7913799,146.314738 L15.7913799,148.6518 L13,148.6518 L13,139.6518 L17.0780774,139.6518 Z M4.27332521,139.6518 C6.63678441,139.6518 8,140.819849 8,142.874653 C8,144.986231 6.72331526,146.232608 4.49891238,146.310822 L4.27332521,146.314738 L3.01339829,146.314738 L3.01339829,148.6518 L0,148.6518 L0,139.6518 L4.27332521,139.6518 Z M109.171591,139.6518 L113,148.6518 L109.682012,148.6518 L109.212404,147.380605 L105.679767,147.380605 L105.197059,148.6518 L102,148.6518 L105.975539,139.6518 L109.171591,139.6518 Z M29.0138746,143.6518 L28,146.6518 L30,146.6518 L29.0138746,143.6518 Z M107.013875,143.6518 L106,146.6518 L108,146.6518 L107.013875,143.6518 Z M4.03615561,142.6518 L3,142.6518 L3,144.6518 L4.03615561,144.6518 C4.64713959,144.6518 5,144.280282 5,143.633831 C5,143.011189 4.64713959,142.6518 4.03615561,142.6518 Z M16.7257869,142.6518 L15,142.6518 L15,144.6518 L16.7257869,144.6518 C17.533293,144.6518 18,144.280282 18,143.633831 C18,143.011189 17.533293,142.6518 16.7257869,142.6518 Z M4.67665607,125.551469 C5.9862629,125.551469 7.41897552,126.163323 8.30138686,127.118312 L6.66012933,129.065037 C6.14611669,128.367285 5.37440871,127.913906 4.71386342,127.913906 C3.68446009,127.913906 2.93801635,128.734765 2.93801635,129.873034 C2.93801635,131.024165 3.68446009,131.856507 4.71386342,131.856507 C5.32571761,131.856507 6.09742559,131.477084 6.66012933,130.877632 L8.30138686,132.628215 C7.4021417,133.607873 6.05856363,134.262013 4.80143948,134.335581 L4.56687142,134.342509 C1.93341792,134.342509 0.0239,132.468821 0.0239,129.909782 C0.0239,127.38795 1.98256837,125.551469 4.67665607,125.551469 Z M40.0817457,125.514124 C41.4414217,125.514124 42.8488701,125.918811 43.8162612,126.530665 L42.7882359,128.685476 C41.9186863,128.207752 40.5838153,127.681337 39.8373715,127.681337 C39.519042,127.681337 39.3100377,127.780097 39.3100377,128.036874 C39.3100377,129.11405 43.7551676,128.440643 43.7551676,131.550902 C43.7551676,133.395018 42.1908914,134.246527 40.3415556,134.303059 L40.1423799,134.306083 C38.6490331,134.306083 36.9843487,133.803554 35.8451608,132.934004 L36.8984503,130.803998 C37.7799429,131.538499 39.2980946,132.13841 40.1676442,132.13841 C40.5838153,132.13841 40.8534537,132.003821 40.8534537,131.697894 C40.8534537,130.583051 36.4083238,131.318011 36.4083238,128.305594 C36.4083238,126.592218 37.8538983,125.514124 40.0817457,125.514124 Z M55.1032714,125.637046 L55.1032714,127.877755 L52.6544766,127.877755 L52.6544766,134.220001 L49.8133969,134.220001 L49.8133969,127.877755 L47.3765451,127.877755 L47.3765451,125.637046 L55.1032714,125.637046 Z M66.4759963,125.637276 L66.4759963,127.791627 L62.0556713,127.791627 L62.0556713,128.844917 L66.0713089,128.844917 L66.0713089,130.999268 L62.0556713,130.999268 L62.0556713,132.06496 L66.5853216,132.06496 L66.5853216,134.219771 L59.2145916,134.219771 L59.2145916,125.637276 L66.4759963,125.637276 Z M26.2102487,125.636908 L27.936486,128.94285 L29.6011704,125.636908 L32.430307,125.636908 L29.3567962,131.55058 L29.3567962,134.219863 L26.5157165,134.219863 L26.5157165,131.612133 L23.3815715,125.636908 L26.2102487,125.636908 Z M19.7347919,125.637322 L19.7347919,127.412709 L15.7310974,132.040201 L19.8206903,132.040201 L19.8206903,134.219817 L11.9478908,134.219817 L11.9478908,132.444429 L15.9515854,127.816478 L12.0953422,127.816478 L12.0953422,125.637322 L19.7347919,125.637322 Z M71.0722982,0 C80.3236071,0 87.8234144,7.49980732 87.8234144,16.7511162 L87.8234144,27.1737675 C87.8234144,32.0093448 83.9033216,35.4700877 79.0682035,35.4700877 L48.6550999,35.4700877 C41.6973256,35.4700877 36.0046011,41.6217028 36.0046011,48.5794771 L36.0046011,64.4330234 C36.0046011,71.445001 41.6890573,77.1289978 48.7001162,77.1289978 L78.5854267,77.1289978 C83.6189839,77.1289978 87.6998492,81.2094038 87.6998492,86.2434204 L87.6998492,99.6486312 C87.6998492,106.503052 82.1430924,112.059809 75.2886718,112.059809 L29.3233555,112.059809 C13.170313,112.059809 0.0756228091,98.9651184 0.0756228091,82.8120759 L0.0756228091,33.6271755 C0.0756228091,15.0556553 15.1308188,0 33.702339,0 L71.0722982,0 Z M118.494205,39.6518 C123.653856,39.6518 127.852959,43.8177867 127.996222,49.0119745 L128,49.2862853 L128,63.0808744 C128,69.3732719 123.044832,74.4921224 116.874299,74.6481362 L116.584179,74.6518 L96.4834318,74.6518 C90.7883977,74.6518 86.1541793,70.0492469 86.0037682,64.3136399 L86,64.0259314 L86,48.2735919 C86,43.5987437 89.6709483,39.792475 94.2508619,39.6556107 L94.5062192,39.6518 L118.494205,39.6518 Z M115.00671,63.970398 C114.906458,65.3471405 115.941449,66.5444843 117.318597,66.6451423 C118.695745,66.7449886 119.893088,65.7099965 119.99334,64.3328482 C120.093186,62.9561058 119.0586,61.7583561 117.681453,61.6585098 C116.304305,61.5582576 115.106962,62.5932497 115.00671,63.970398 Z M104.00666,63.970398 C103.906814,65.3471405 104.9414,66.5444843 106.318547,66.6451423 C107.695695,66.7449886 108.893038,65.7099965 108.99329,64.3328482 C109.093542,62.9561058 108.058551,61.7583561 106.681403,61.6585098 C105.304255,61.5582576 104.106912,62.5932497 104.00666,63.970398 Z M93.4984891,61.8618995 C92.2336193,62.4150261 91.6569815,63.888948 92.2100831,65.1534691 C92.7635904,66.4179903 94.23704,66.9950599 95.5019097,66.4415276 C96.7663737,65.888401 97.3430115,64.4144791 96.78991,63.149958 C96.2368084,61.8854368 94.7629531,61.308773 93.4984891,61.8618995 Z M115.00671,50.9703726 C114.906458,52.3475072 115.941449,53.5448391 117.318597,53.6450903 C118.695745,53.7453415 119.893088,52.7103597 119.99334,51.3332251 C120.093186,49.9560904 119.0586,48.7587585 117.681453,48.6585074 C116.304305,48.5582562 115.106962,49.5936439 115.00671,50.9703726 Z M104.00666,50.9703726 C103.906814,52.3475072 104.9414,53.5448391 106.318547,53.6450903 C107.695695,53.7453415 108.893038,52.7103597 108.99329,51.3332251 C109.093542,49.9560904 108.058551,48.7587585 106.681403,48.6585074 C105.304255,48.5582562 104.106912,49.5936439 104.00666,50.9703726 Z M93.4984891,48.8618897 C92.2336193,49.4153963 91.6569815,50.8888438 92.2100831,52.1537118 C92.7635904,53.4181741 94.23704,53.994811 95.5019097,53.4417103 C96.7663737,52.8882037 97.3430115,51.4147562 96.78991,50.1498882 C96.2368084,48.8854259 94.7629531,48.308789 93.4984891,48.8618897 Z" id="Combined-Shape"></path>
        </g>
    </g>
</svg>